<svg width="44" height="41" viewBox="0 0 44 41" fill="none" xmlns="http://www.w3.org/2000/svg">
<path d="M43.5286 13.8814L41.7023 24.0143C41.477 25.1336 40.5549 25.8142 39.4915 25.827H12.8655L12.3369 28.7088H37.7132C39.0494 28.807 39.9558 29.7225 39.9721 30.8934C39.8749 32.183 38.9284 33.062 37.7132 33.078H9.64544C8.12745 32.9459 7.22229 31.7757 7.38655 30.475L8.58807 24.1536L6.76175 6.39783L1.57115 4.81758C0.302708 4.33051 -0.214998 3.22076 0.081254 2.0752C0.573846 0.881314 1.75417 0.335844 2.91686 0.634289L9.5493 2.67946C10.4428 3.00339 10.9568 3.71073 11.0872 4.53872L11.4717 8.07127L41.558 11.3249C42.9404 11.6145 43.6909 12.6735 43.5286 13.8814ZM16.5227 37.665C16.5227 39.5069 14.9789 41 13.0743 41C11.1698 41 9.62599 39.5069 9.62599 37.665C9.62599 35.8231 11.1699 34.33 13.0743 34.33C14.9788 34.33 16.5227 35.8232 16.5227 37.665ZM37.1095 37.665C37.1095 39.5069 35.5656 41 33.661 41C31.7565 41 30.2127 39.5069 30.2127 37.665C30.2127 35.8231 31.7565 34.33 33.661 34.33C35.5656 34.33 37.1095 35.8232 37.1095 37.665Z" fill="#e47c03"/>
</svg>
