<svg width="214" height="214" viewBox="0 0 214 214" fill="none" xmlns="http://www.w3.org/2000/svg">
<path d="M26.3237 88.1685C26.4079 88.9301 26.4934 89.7003 26.5799 90.4779L27.9201 102.54C28.8608 111.01 29.6766 118.356 31.0999 124.219C32.6311 130.525 35.1554 136.466 40.4193 141.178C45.6833 145.889 51.8668 147.742 58.3038 148.566C64.2874 149.334 71.6784 149.333 80.2013 149.333H137.305C143.148 149.333 148.305 149.333 152.611 148.896C157.278 148.422 161.811 147.373 166.171 144.748C170.53 142.123 173.58 138.607 176.182 134.705C178.583 131.104 180.996 126.546 183.729 121.383L210.284 71.225C219.706 53.4279 206.804 31.9998 186.667 31.9998H78.921C68.4378 31.9993 59.4693 31.9987 52.3705 32.9906C48.7776 33.4927 45.257 34.2964 41.9548 35.6667L40.4204 21.8573C39.0378 9.41387 28.52 0 16 0H10.6667C4.77568 0 0 4.77557 0 10.6667C0 16.5577 4.77568 21.3333 10.6667 21.3333H16C17.6496 21.3333 19.0353 22.5737 19.2175 24.2131L26.3237 88.1685Z" fill="#2A4494"/>
<path fill-rule="evenodd" clip-rule="evenodd" d="M128 186.667C128 171.939 139.939 160 154.667 160C169.394 160 181.333 171.939 181.333 186.667C181.333 201.394 169.394 213.333 154.667 213.333C139.939 213.333 128 201.394 128 186.667Z" fill="#2A4494"/>
<path fill-rule="evenodd" clip-rule="evenodd" d="M32 186.667C32 171.939 43.9391 160 58.6667 160C73.3942 160 85.3333 171.939 85.3333 186.667C85.3333 201.394 73.3942 213.333 58.6667 213.333C43.9391 213.333 32 201.394 32 186.667Z" fill="#2A4494"/>
</svg>
