<svg width="45" height="45" viewBox="0 0 114 89" fill="none" xmlns="http://www.w3.org/2000/svg">
<path d="M91.9539 32.0084L88.0958 53.3033C87.62 55.6557 85.6719 57.086 83.4255 57.1129H27.1783L26.0616 63.1692H79.6689C82.4917 63.3756 84.4064 65.2995 84.4408 67.7602C84.2355 70.4705 82.2361 72.3177 79.6689 72.3513H20.3759C17.1692 72.0739 15.257 69.6145 15.604 66.8811L18.1422 53.5962L14.2841 16.2812L3.31905 12.9602C0.639469 11.9366 -0.454182 9.60434 0.171649 7.19687C1.21225 4.68784 3.70568 3.5415 6.16185 4.1687L20.1728 8.46677C22.0604 9.14752 23.1462 10.6341 23.4217 12.3741L24.2339 19.798L87.7911 26.6358C90.7113 27.2444 92.2967 29.4699 91.9539 32.0084V32.0084ZM34.9042 81.9913C34.9042 85.8621 31.6428 89 27.6195 89C23.5962 89 20.3348 85.8621 20.3348 81.9913C20.3348 78.1204 23.5963 74.9825 27.6195 74.9825C31.6427 74.9825 34.9042 78.1205 34.9042 81.9913ZM78.3935 81.9913C78.3935 85.8621 75.132 89 71.1087 89C67.0855 89 63.8241 85.8621 63.8241 81.9913C63.8241 78.1204 67.0855 74.9825 71.1087 74.9825C75.132 74.9825 78.3935 78.1205 78.3935 81.9913Z" fill="white"/>
<circle cx="91.6875" cy="21.6875" r="19.6875" fill="#D9D9D9"/>
<path d="M92 2C80.9525 2 72 10.955 72 22C72 33.045 80.9525 42 92 42C103.048 42 112 33.045 112 22C112 10.955 103.048 2 92 2ZM101.267 27.7325C102.245 28.71 102.245 30.29 101.267 31.2675C100.78 31.755 100.14 32 99.5 32C98.86 32 98.22 31.755 97.7325 31.2675L92 25.535L86.2675 31.2675C85.78 31.755 85.14 32 84.5 32C83.86 32 83.22 31.755 82.7325 31.2675C81.755 30.29 81.755 28.71 82.7325 27.7325L88.465 22L82.7325 16.2675C81.755 15.29 81.755 13.71 82.7325 12.7325C83.71 11.755 85.29 11.755 86.2675 12.7325L92 18.465L97.7325 12.7325C98.71 11.755 100.29 11.755 101.267 12.7325C102.245 13.71 102.245 15.29 101.267 16.2675L95.535 22L101.267 27.7325Z" fill="#FF0000" stroke="#FF0000" stroke-width="2.048"/>
</svg>
