<svg width="46" height="46" viewBox="0 0 46 46" fill="none" xmlns="http://www.w3.org/2000/svg">
<circle cx="23" cy="23" r="21" fill="#D9D9D9"/>
<path d="M23.3333 2C11.5493 2 2 11.552 2 23.3333C2 35.1147 11.5493 44.6667 23.3333 44.6667C35.1173 44.6667 44.6667 35.1147 44.6667 23.3333C44.6667 11.552 35.1173 2 23.3333 2ZM33.2187 29.448C34.2613 30.4907 34.2613 32.176 33.2187 33.2187C32.6987 33.7387 32.016 34 31.3333 34C30.6507 34 29.968 33.7387 29.448 33.2187L23.3333 27.104L17.2187 33.2187C16.6987 33.7387 16.016 34 15.3333 34C14.6507 34 13.968 33.7387 13.448 33.2187C12.4053 32.176 12.4053 30.4907 13.448 29.448L19.5627 23.3333L13.448 17.2187C12.4053 16.176 12.4053 14.4907 13.448 13.448C14.4907 12.4053 16.176 12.4053 17.2187 13.448L23.3333 19.5627L29.448 13.448C30.4907 12.4053 32.176 12.4053 33.2187 13.448C34.2613 14.4907 34.2613 16.176 33.2187 17.2187L27.104 23.3333L33.2187 29.448Z" fill="#FF0000" stroke="#FF0000" stroke-width="2.048"/>
</svg>
