<svg width="750" height="471" viewBox="0 0 750 471" fill="none" xmlns="http://www.w3.org/2000/svg">
<path d="M40 0H710C732.1 0 750 17.9 750 40V431C750 453.1 732.1 471 710 471H40C17.9 471 0 453.1 0 431V40C0 17.9 17.9 0 40 0Z" fill="black"/>
<path d="M150.7 170.6C157.5 168.3 164.8 167.1 172.4 167.1C205.6 167.1 233.3 190.7 239.6 222L286.6 212.4C275.8 159.2 228.8 119.1 172.4 119.1C159.5 119.1 147.1 121.2 135.5 125.1L150.7 170.6Z" fill="#FFF100"/>
<path d="M95.1999 323L127 287C112.8 274.4 103.9 256.1 103.9 235.6C103.9 215.2 112.8 196.8 127 184.3L95.1999 148.4C71.0999 169.8 55.8999 200.9 55.8999 235.7C55.8999 270.4 71.0999 301.6 95.1999 323Z" fill="#00A3DF"/>
<path d="M239.6 249.4C233.2 280.7 205.6 304.2 172.4 304.2C164.8 304.2 157.5 303 150.6 300.7L135.4 346.2C147 350.1 159.5 352.2 172.4 352.2C228.8 352.2 275.8 312.2 286.6 259L239.6 249.4Z" fill="#EE4023"/>
<path d="M443.2 281.6C435.4 289.2 424.9 293.8 413.3 293.6C405.3 293.5 397.9 291.1 391.7 287.1L376.1 311.9C386.8 318.6 399.3 322.6 412.9 322.8C432.6 323.1 450.6 315.3 463.7 302.6L443.2 281.6ZM415 180.5C375.8 179.9 343.4 211.3 342.8 250.5C342.6 265.2 346.8 279 354.3 290.4L483.1 235.3C475.9 204.4 448.3 181.1 415 180.5ZM372.3 256.1C372.1 254.5 372 252.8 372 251.1C372.4 228 391.4 209.5 414.5 209.9C427.1 210.1 438.3 215.8 445.8 224.8L372.3 256.1ZM523.6 148.5V285.8L547.4 295.7L536.1 322.8L512.5 313C507.2 310.7 503.6 307.2 500.9 303.2C498.3 299.2 496.3 293.6 496.3 286.2V148.5H523.6Z" fill="white"/>
<path d="M609.5 212C613.7 210.6 618.1 209.9 622.8 209.9C643.1 209.9 659.9 224.3 663.8 243.4L692.5 237.5C685.9 205 657.2 180.6 622.8 180.6C614.9 180.6 607.3 181.9 600.3 184.2L609.5 212ZM575.6 304.9L595 283C586.3 275.3 580.9 264.1 580.9 251.6C580.9 239.1 586.4 227.9 595 220.3L575.6 198.4C560.9 211.4 551.6 230.5 551.6 251.7C551.6 272.9 560.9 291.9 575.6 304.9ZM663.8 260.1C659.9 279.2 643 293.6 622.8 293.6C618.2 293.6 613.7 292.8 609.5 291.4L600.2 319.2C607.3 321.6 614.9 322.9 622.8 322.9C657.2 322.9 685.9 298.5 692.5 266L663.8 260.1Z" fill="white"/>
</svg>
