<svg width="800" height="460" viewBox="0 0 800 460" fill="none" xmlns="http://www.w3.org/2000/svg">
<path d="M800 272.078V344.791C800 362.931 785.295 377.634 767.156 377.634H732.012C725.663 334.063 688.11 300.561 642.784 300.561C597.569 300.561 560.017 334.063 553.667 377.634H255.114C248.765 334.063 211.212 300.561 165.996 300.561C120.78 300.561 83.2275 334.063 76.8784 377.634H32.8667C14.7281 377.634 0.0235294 362.931 0.0235294 344.791V272.078H800ZM226.231 96.6117H207.522L200.647 132.109H218.876C231.022 132.109 241.093 123.791 241.093 109.881C241.093 101.413 235.502 96.6117 226.231 96.6117ZM710.97 390.663C710.97 428.217 680.425 458.759 642.872 458.759C605.21 458.759 574.665 428.214 574.665 390.663C574.665 353.001 605.21 322.456 642.872 322.456C680.424 322.456 710.97 353.003 710.97 390.663ZM676.922 390.663C676.922 371.834 661.593 356.614 642.873 356.614C624.043 356.614 608.824 371.834 608.824 390.663C608.824 409.384 624.043 424.714 642.873 424.714C661.593 424.714 676.922 409.384 676.922 390.663ZM234.069 390.663C234.069 428.217 203.634 458.759 165.973 458.759C128.311 458.759 97.8758 428.214 97.8758 390.663C97.8758 353.001 128.312 322.456 165.973 322.456C203.633 322.456 234.069 353.003 234.069 390.663ZM200.022 390.663C200.022 371.834 184.804 356.614 165.975 356.614C147.144 356.614 131.927 371.834 131.927 390.663C131.927 409.384 147.145 424.714 165.975 424.714C184.804 424.714 200.022 409.384 200.022 390.663ZM799.976 253.924H0V34.085C0 15.9111 14.7804 1.24182 32.8431 1.24182H529.23C547.404 1.24182 562.075 15.9124 562.075 34.085V58.5006H627.216C638.711 58.5006 649.769 63.0993 657.979 71.2L787.058 198.855C795.268 207.067 799.976 218.233 799.976 229.948V253.924ZM116.58 128.752L122.654 96.6131H167.418L170.775 78.8654H105.707L83.6405 192.378H104.105L113.064 146.49H150.793L154.15 128.753H116.58V128.752ZM236.303 144.574V144.252C253.409 138.66 262.199 121.876 262.199 106.362C262.199 94.698 256.447 85.898 246.846 81.7386C242.217 79.6654 236.613 78.8627 230.541 78.8627H190.416L168.358 192.374H188.971L197.129 150.004H217.593L231.984 192.374H254.042L238.86 150.324C237.416 146.178 236.303 144.574 236.303 144.574ZM362.239 78.864H294.456L272.239 192.376H342.739L346.095 174.629H296.22L302.132 144.094H340.342L343.86 126.346H305.65L311.401 96.6131H358.723L362.239 78.864ZM453.822 78.864H386.038L363.821 192.376H434.322L437.677 174.629H387.801L393.714 144.094H431.924L435.442 126.346H397.23L402.983 96.6131H450.303L453.822 78.864ZM734.289 194.255L633.237 97.8013C632.251 96.9268 630.937 96.3791 629.624 96.3791H605.867C603.02 96.3791 600.72 98.6784 600.72 101.525V197.979C600.72 200.826 603.02 203.124 605.867 203.124H730.784C735.383 203.123 737.682 197.43 734.289 194.255Z" fill="#22C05A" stroke="#22C05A" stroke-width="1.30719"/>
</svg>
