<svg width="800" height="524" viewBox="0 0 800 524" fill="none" xmlns="http://www.w3.org/2000/svg">
<path d="M799.989 269.886C799.989 269.736 799.981 269.587 799.979 269.437C799.76 259.412 791.709 251.423 781.562 251.423H776.726L702.044 107.036C698.894 100.939 692.61 97.1426 685.672 97.1408L558.17 97.1142L563.034 58.5568C564.422 43.1482 559.658 28.5993 549.617 17.5872C539.595 6.59785 525.603 0.544617 510.215 0.544617H114.493C104.543 0.544617 96.0906 8.24324 95.142 18.1685L91.1753 49.9361H316.639C331.279 49.9361 342.836 61.804 342.454 76.4439C342.069 91.0837 329.891 102.952 315.251 102.952H240.047C240.06 102.99 240.073 103.027 240.086 103.063H19.2427C8.88957 103.063 0.276442 111.455 0.00568395 121.808C-0.265074 132.161 7.90689 140.553 18.2601 140.553H310.633C324.205 142.643 334.344 154.38 333.971 168.59C333.562 184.196 320.643 196.85 305.064 196.98H103.496C93.0384 196.98 84.3401 205.457 84.0655 215.914C83.791 226.372 92.0463 234.849 102.504 234.849H301.698C315.469 236.767 325.811 248.598 325.436 262.947C325.025 278.632 311.975 291.348 296.29 291.348H67.769V291.369H48.5679C38.1106 291.369 29.4122 299.846 29.1377 310.303C28.8632 320.76 37.1165 329.237 47.5757 329.237H64.1469L57.6657 397.055C56.2759 412.462 61.0398 427.011 71.0824 438.023C81.1023 449.014 95.0965 455.065 110.484 455.065H124.78C131.592 494.02 165.295 523.454 206.52 523.454C247.745 523.454 282.989 494.02 291.837 455.067H470.232C484.656 455.067 498.312 449.552 509.021 440.522C518.813 449.921 531.795 455.067 545.969 455.067H548.904C555.714 494.02 589.417 523.454 630.644 523.454C671.869 523.454 707.113 494.02 715.961 455.067H727.736C758.411 455.067 785.616 430.129 788.38 399.477L799.919 271.66C799.934 271.488 799.926 271.317 799.937 271.143C799.956 270.88 799.992 270.623 800 270.358C800.004 270.198 799.989 270.045 799.989 269.886ZM207.512 485.585C181.411 485.585 160.732 464.353 161.415 438.252C162.099 412.149 183.89 390.915 209.991 390.915C236.091 390.915 256.769 412.149 256.086 438.252C255.402 464.353 233.613 485.585 207.512 485.585ZM631.636 485.585C605.535 485.585 584.857 464.353 585.539 438.252C586.223 412.149 608.014 390.915 634.115 390.915C660.215 390.915 680.895 412.149 680.21 438.252C679.526 464.353 657.737 485.585 631.636 485.585ZM750.656 397.055C749.671 407.974 739.631 417.199 728.73 417.199H715.993C707.56 380.367 674.823 353.047 635.105 353.047C595.387 353.047 561.22 380.367 550.859 417.199H546.961C542.148 417.199 537.854 415.395 534.864 412.115C531.855 408.817 530.439 404.328 530.876 399.475L554.75 134.982L609.582 134.994L600.891 231.278C599.499 246.684 604.261 261.233 614.302 272.245C624.322 283.238 638.32 289.294 653.709 289.294H760.38L750.656 397.055Z" fill="#22C05A"/>
</svg>
