<svg width="42" height="46" viewBox="0 0 42 46" fill="none" xmlns="http://www.w3.org/2000/svg">
<path d="M28.8995 18.9299V8.15137C28.8995 4.57969 25.4938 1.68427 21.2923 1.68427C17.0908 1.68427 13.6851 4.57969 13.6851 8.15137V18.9299" stroke="#E47C03" stroke-width="3" stroke-linecap="round"/>
<path d="M3.18163 16.5097C3.38489 13.8675 5.58815 11.8272 8.23818 11.8272H34.3458C36.9959 11.8272 39.1992 13.8675 39.4023 16.5097L40.7379 33.8709C41.191 39.762 36.5331 44.7919 30.6248 44.7919H11.9593C6.05087 44.7919 1.39301 39.762 1.84615 33.8709L3.18163 16.5097Z" fill="#272727" stroke="#E47C03" stroke-width="2"/>
<path d="M32.5932 28.4601C32.5932 26.8943 30.7801 25.5757 27.8957 24.7516C28.6374 21.8672 28.3902 19.6421 27.0716 18.8179C26.742 18.6531 26.4123 18.5707 26.0003 18.5707C24.7641 18.5707 23.1159 19.4772 21.4676 21.0431C19.8194 19.4772 18.2536 18.5707 16.935 18.5707C16.5229 18.5707 16.1933 18.6531 15.8636 18.8179C14.6274 19.6421 14.3802 21.8672 15.0395 24.7516C12.2375 25.5757 10.342 26.9767 10.342 28.4601C10.342 30.0259 12.1551 31.3445 15.0395 32.1686C14.3802 35.053 14.6274 37.3606 15.946 38.1023C16.2757 38.2671 16.6053 38.3495 17.0174 38.3495C18.2536 38.3495 19.9018 37.443 21.55 35.8772C23.1983 37.443 24.7641 38.3495 26.0827 38.3495C26.4947 38.3495 26.8244 38.2671 27.154 38.1023C28.4726 37.3606 28.7198 35.053 28.0606 32.1686C30.7801 31.3445 32.5932 29.9435 32.5932 28.4601ZM26.0003 19.6421C26.2475 19.6421 26.4123 19.6421 26.4947 19.8069C27.154 20.1365 27.4013 21.4551 27.154 23.1858C27.0716 23.5978 26.9892 24.0923 26.9068 24.5044C26.0003 24.2571 25.0937 24.1747 24.0224 24.0099C23.4455 23.1858 22.8686 22.4441 22.2093 21.7848C23.6927 20.3838 25.0937 19.6421 26.0003 19.6421ZM24.5169 30.1908C24.1872 30.7676 23.8576 31.3445 23.4455 31.839C22.7862 31.9214 22.1269 31.9214 21.4676 31.9214C20.8083 31.9214 20.149 31.9214 19.4897 31.839C19.1601 31.3445 18.8304 30.7676 18.4184 30.1908C18.0887 29.6139 17.7591 29.037 17.5119 28.4601C17.7591 27.8832 18.0887 27.3063 18.4184 26.7295C18.748 26.1526 19.1601 25.5757 19.4897 24.9988C20.149 24.9164 20.8083 24.9164 21.4676 24.9164C22.1269 24.9164 22.7862 24.9164 23.4455 24.9988C23.7751 25.4933 24.1872 26.0702 24.5169 26.7295C24.8465 27.3063 25.1761 27.8832 25.4234 28.4601C25.1761 29.037 24.8465 29.6139 24.5169 30.1908ZM26.0003 29.6963C26.2475 30.2732 26.4123 30.8501 26.5771 31.3445C26.0003 31.5093 25.4234 31.5918 24.8465 31.6742C25.0113 31.3445 25.2586 31.0149 25.4234 30.6852C25.6706 30.438 25.8354 30.0259 26.0003 29.6963ZM21.4676 34.3938C21.0556 33.9817 20.6435 33.4872 20.3139 32.9928C20.7259 32.9928 21.138 32.9928 21.4676 32.9928C21.8797 32.9928 22.2917 32.9928 22.6214 32.9928C22.2917 33.4872 21.8797 33.9817 21.4676 34.3938ZM18.0887 31.7566C17.5119 31.6742 16.935 31.5918 16.3581 31.4269C16.5229 30.8501 16.7702 30.2732 16.935 29.7787C17.0998 30.1083 17.2646 30.438 17.5119 30.7676C17.7591 31.0973 17.9239 31.4269 18.0887 31.7566ZM16.935 27.2239C16.6877 26.6471 16.5229 26.0702 16.2757 25.4933C16.8526 25.3285 17.4294 25.2461 18.0887 25.1636C17.8415 25.4933 17.6767 25.8229 17.4294 26.1526C17.347 26.5646 17.1822 26.8943 16.935 27.2239ZM21.4676 22.5265C21.8797 22.9385 22.2093 23.433 22.6214 23.8451C22.2093 23.8451 21.8797 23.8451 21.4676 23.8451C21.0556 23.8451 20.7259 23.8451 20.3139 23.8451C20.7259 23.433 21.138 22.9385 21.4676 22.5265ZM25.4234 26.1526C25.1761 25.8229 25.0113 25.4933 24.7641 25.1636C25.4234 25.2461 26.0003 25.3285 26.5771 25.4933C26.4123 26.0702 26.1651 26.6471 25.9179 27.2239C25.8354 26.8943 25.6706 26.5646 25.4234 26.1526ZM15.8636 23.1034C15.6164 21.3727 15.8636 20.1365 16.5229 19.7245C16.6877 19.6421 16.8526 19.5596 17.0174 19.5596C17.9239 19.5596 19.2425 20.3014 20.7259 21.7024C20.149 22.3616 19.4897 23.1034 18.9129 23.9275C17.9239 24.0099 16.935 24.1747 16.0284 24.4219C15.946 24.0099 15.8636 23.5154 15.8636 23.1034ZM14.0506 30.6852C12.4847 30.0259 11.4134 29.1194 11.4134 28.4601C11.4134 27.7184 12.4023 26.8943 13.9682 26.235C14.3802 26.0702 14.7923 25.9054 15.2867 25.8229C15.534 26.7295 15.8636 27.636 16.3581 28.5425C15.946 29.4491 15.6164 30.3556 15.3692 31.1797C14.8747 31.0149 14.4626 30.8501 14.0506 30.6852ZM16.4405 37.1958C15.7812 36.8661 15.534 35.5475 15.7812 33.8169C15.8636 33.4048 15.946 32.9103 16.0284 32.4159C16.935 32.5807 17.8415 32.7455 18.8304 32.8279C19.4073 33.652 20.0666 34.3938 20.6435 35.053C19.1601 36.454 17.8415 37.1958 16.935 37.1958C16.7702 37.2782 16.6053 37.1958 16.4405 37.1958ZM27.154 33.8169C27.4013 35.5475 27.154 36.7837 26.4947 37.1958C26.3299 37.2782 26.1651 37.3606 26.0003 37.3606C25.0937 37.3606 23.7751 36.6189 22.2917 35.2179C22.951 34.5586 23.5279 33.8169 24.1048 32.9928C25.0937 32.9103 26.0827 32.7455 26.9068 32.5807C26.9892 32.9103 27.0716 33.3224 27.154 33.8169ZM28.9671 30.6852C28.555 30.8501 28.143 31.0149 27.6485 31.0973C27.4013 30.2732 27.0716 29.3666 26.6596 28.4601C27.0716 27.5536 27.4013 26.6471 27.7309 25.7405C28.143 25.9053 28.6374 25.9878 29.0495 26.1526C30.6153 26.8119 31.6043 27.636 31.6043 28.3777C31.5218 29.1194 30.5329 30.0259 28.9671 30.6852Z" fill="#E47C03"/>
<path d="M21.4507 30.2986C22.6044 30.2986 23.511 29.392 23.511 28.2383C23.511 27.0845 22.6044 26.178 21.4507 26.178C20.2969 26.178 19.3904 27.0845 19.3904 28.2383C19.3904 29.392 20.2969 30.2986 21.4507 30.2986Z" fill="#E47C03"/>
</svg>
