<svg width="59" height="65" viewBox="0 0 59 65" fill="none" xmlns="http://www.w3.org/2000/svg">
<path d="M3.92245 22.8655C4.20853 19.1468 7.30941 16.2753 11.0391 16.2753H47.7831C51.5129 16.2753 54.6139 19.1468 54.8997 22.8655L56.7794 47.2998C57.4172 55.5909 50.8616 62.67 42.5462 62.67H16.2762C7.96065 62.67 1.40514 55.5909 2.04289 47.2998L3.92245 22.8655Z" fill="#2A4494" stroke="#61DAFB" stroke-width="3"/>
<path d="M40.1178 26.2716V11.1018C40.1178 6.07505 35.3245 2 29.4113 2C23.4981 2 18.7048 6.07505 18.7048 11.1018V26.2716" stroke="#61DAFB" stroke-width="3" stroke-linecap="round"/>
<path d="M45.2032 42.6845C45.2032 40.4808 42.6515 38.625 38.5919 37.4651C39.6358 33.4056 39.2878 30.2739 37.432 29.1141C36.9681 28.8821 36.5042 28.7661 35.9242 28.7661C34.1844 28.7661 31.8647 30.042 29.5449 32.2457C27.2252 30.042 25.0215 28.7661 23.1657 28.7661C22.5857 28.7661 22.1218 28.8821 21.6578 29.1141C19.918 30.2739 19.5701 33.4056 20.498 37.4651C16.5544 38.625 13.8867 40.5968 13.8867 42.6845C13.8867 44.8883 16.4384 46.7441 20.498 47.9039C19.5701 51.9635 19.918 55.2111 21.7738 56.255C22.2378 56.487 22.7017 56.603 23.2817 56.603C25.0215 56.603 27.3412 55.3271 29.6609 53.1233C31.9807 55.3271 34.1844 56.603 36.0402 56.603C36.6201 56.603 37.0841 56.487 37.548 56.255C39.4038 55.2111 39.7518 51.9635 38.8239 47.9039C42.6515 46.7441 45.2032 44.7723 45.2032 42.6845ZM35.9242 30.2739C36.2722 30.2739 36.5041 30.2739 36.6201 30.5059C37.548 30.9699 37.896 32.8257 37.548 35.2614C37.432 35.8413 37.3161 36.5372 37.2001 37.1172C35.9242 36.7692 34.6484 36.6532 33.1405 36.4212C32.3286 35.2614 31.5167 34.2175 30.5888 33.2896C32.6766 31.3178 34.6484 30.2739 35.9242 30.2739ZM33.8365 45.1203C33.3725 45.9322 32.9086 46.7441 32.3286 47.44C31.4007 47.556 30.4728 47.556 29.5449 47.556C28.617 47.556 27.6892 47.556 26.7613 47.44C26.2973 46.7441 25.8334 45.9322 25.2534 45.1203C24.7895 44.3083 24.3255 43.4964 23.9776 42.6845C24.3255 41.8726 24.7895 41.0607 25.2534 40.2488C25.7174 39.4369 26.2973 38.625 26.7613 37.8131C27.6892 37.6971 28.617 37.6971 29.5449 37.6971C30.4728 37.6971 31.4007 37.6971 32.3286 37.8131C32.7926 38.509 33.3725 39.3209 33.8365 40.2488C34.3004 41.0607 34.7643 41.8726 35.1123 42.6845C34.7643 43.4964 34.3004 44.3083 33.8365 45.1203ZM35.9242 44.4243C36.2722 45.2362 36.5042 46.0482 36.7361 46.7441C35.9242 46.976 35.1123 47.092 34.3004 47.208C34.5324 46.7441 34.8803 46.2801 35.1123 45.8162C35.4603 45.4682 35.6922 44.8883 35.9242 44.4243ZM29.5449 51.0356C28.965 50.4557 28.3851 49.7597 27.9211 49.0638C28.5011 49.0638 29.081 49.0638 29.5449 49.0638C30.1249 49.0638 30.7048 49.0638 31.1688 49.0638C30.7048 49.7597 30.1249 50.4557 29.5449 51.0356ZM24.7895 47.324C23.9776 47.208 23.1657 47.092 22.3538 46.8601C22.5857 46.0482 22.9337 45.2362 23.1657 44.5403C23.3976 45.0043 23.6296 45.4682 23.9776 45.9322C24.3255 46.3961 24.5575 46.8601 24.7895 47.324ZM23.1657 40.9447C22.8177 40.1328 22.5857 39.3209 22.2378 38.509C23.0497 38.277 23.8616 38.161 24.7895 38.0451C24.4415 38.509 24.2095 38.973 23.8616 39.4369C23.7456 40.0168 23.5136 40.4808 23.1657 40.9447ZM29.5449 34.3335C30.1249 34.9134 30.5888 35.6093 31.1688 36.1893C30.5888 36.1893 30.1249 36.1893 29.5449 36.1893C28.965 36.1893 28.5011 36.1893 27.9211 36.1893C28.5011 35.6093 29.081 34.9134 29.5449 34.3335ZM35.1123 39.4369C34.7643 38.973 34.5324 38.509 34.1844 38.0451C35.1123 38.161 35.9242 38.277 36.7361 38.509C36.5042 39.3209 36.1562 40.1328 35.8082 40.9447C35.6922 40.4808 35.4603 40.0168 35.1123 39.4369ZM21.6578 35.1454C21.3099 32.7097 21.6578 30.9699 22.5857 30.3899C22.8177 30.2739 23.0497 30.158 23.2817 30.158C24.5575 30.158 26.4133 31.2018 28.5011 33.1736C27.6892 34.1015 26.7613 35.1454 25.9494 36.3053C24.5575 36.4212 23.1657 36.6532 21.8898 37.0012C21.7738 36.4212 21.6578 35.7253 21.6578 35.1454ZM19.1061 45.8162C16.9024 44.8883 15.3945 43.6124 15.3945 42.6845C15.3945 41.6407 16.7864 40.4808 18.9901 39.5529C19.5701 39.3209 20.15 39.0889 20.8459 38.973C21.1939 40.2488 21.6578 41.5247 22.3538 42.8005C21.7738 44.0764 21.3099 45.3522 20.9619 46.5121C20.266 46.2801 19.6861 46.0482 19.1061 45.8162ZM22.4697 54.9791C21.5419 54.5152 21.1939 52.6594 21.5419 50.2237C21.6578 49.6437 21.7738 48.9478 21.8898 48.2519C23.1657 48.4839 24.4415 48.7158 25.8334 48.8318C26.6453 49.9917 27.5732 51.0356 28.3851 51.9635C26.2973 53.9353 24.4415 54.9791 23.1657 54.9791C22.9337 55.0951 22.7017 54.9791 22.4697 54.9791ZM37.548 50.2237C37.896 52.6594 37.548 54.3992 36.6201 54.9791C36.3882 55.0951 36.1562 55.2111 35.9242 55.2111C34.6484 55.2111 32.7926 54.1672 30.7048 52.1955C31.6327 51.2676 32.4446 50.2237 33.2565 49.0638C34.6484 48.9478 36.0402 48.7158 37.2001 48.4839C37.3161 48.9478 37.432 49.5278 37.548 50.2237ZM40.0997 45.8162C39.5198 46.0482 38.9399 46.2801 38.244 46.3961C37.896 45.2362 37.432 43.9604 36.8521 42.6845C37.432 41.4087 37.896 40.1328 38.3599 38.857C38.9399 39.0889 39.6358 39.2049 40.2157 39.4369C42.4195 40.3648 43.8113 41.5247 43.8113 42.5685C43.6953 43.6124 42.3035 44.8883 40.0997 45.8162Z" fill="#61DAFB"/>
<path d="M29.6343 45.2721C31.2581 45.2721 32.534 43.9962 32.534 42.3724C32.534 40.7486 31.2581 39.4727 29.6343 39.4727C28.0105 39.4727 26.7346 40.7486 26.7346 42.3724C26.7346 43.9962 28.0105 45.2721 29.6343 45.2721Z" fill="#61DAFB"/>
</svg>
