<svg width="57" height="63" viewBox="0 0 57 63" fill="none" xmlns="http://www.w3.org/2000/svg">
<path d="M2.92245 21.8655C3.20853 18.1468 6.30941 15.2753 10.0391 15.2753H46.7831C50.5129 15.2753 53.6139 18.1468 53.8997 21.8655L55.7794 46.2998C56.4172 54.5909 49.8616 61.67 41.5462 61.67H15.2762C6.96065 61.67 0.405143 54.5909 1.04289 46.2998L2.92245 21.8655Z" fill="#2A4494" stroke="#61DAFB" stroke-width="2"/>
<path d="M39.1178 26.2716V11.1018C39.1178 6.07505 34.3245 2 28.4113 2C22.4981 2 17.7048 6.07505 17.7048 11.1018V26.2716" stroke="#2A4494" stroke-width="3" stroke-linecap="round"/>
<path d="M44.2032 40.6845C44.2032 38.4808 41.6515 36.625 37.5919 35.4651C38.6358 31.4056 38.2878 28.2739 36.432 27.1141C35.9681 26.8821 35.5042 26.7661 34.9242 26.7661C33.1844 26.7661 30.8647 28.042 28.5449 30.2457C26.2252 28.042 24.0215 26.7661 22.1657 26.7661C21.5857 26.7661 21.1218 26.8821 20.6578 27.1141C18.918 28.2739 18.5701 31.4056 19.498 35.4651C15.5544 36.625 12.8867 38.5968 12.8867 40.6845C12.8867 42.8883 15.4384 44.7441 19.498 45.9039C18.5701 49.9635 18.918 53.2111 20.7738 54.255C21.2378 54.487 21.7017 54.603 22.2817 54.603C24.0215 54.603 26.3412 53.3271 28.6609 51.1233C30.9807 53.3271 33.1844 54.603 35.0402 54.603C35.6201 54.603 36.0841 54.487 36.548 54.255C38.4038 53.2111 38.7518 49.9635 37.8239 45.9039C41.6515 44.7441 44.2032 42.7723 44.2032 40.6845ZM34.9242 28.2739C35.2722 28.2739 35.5041 28.2739 35.6201 28.5059C36.548 28.9699 36.896 30.8257 36.548 33.2614C36.432 33.8413 36.3161 34.5372 36.2001 35.1172C34.9242 34.7692 33.6484 34.6532 32.1405 34.4212C31.3286 33.2614 30.5167 32.2175 29.5888 31.2896C31.6766 29.3178 33.6484 28.2739 34.9242 28.2739ZM32.8365 43.1203C32.3725 43.9322 31.9086 44.7441 31.3286 45.44C30.4007 45.556 29.4728 45.556 28.5449 45.556C27.617 45.556 26.6892 45.556 25.7613 45.44C25.2973 44.7441 24.8334 43.9322 24.2534 43.1203C23.7895 42.3083 23.3255 41.4964 22.9776 40.6845C23.3255 39.8726 23.7895 39.0607 24.2534 38.2488C24.7174 37.4369 25.2973 36.625 25.7613 35.8131C26.6892 35.6971 27.617 35.6971 28.5449 35.6971C29.4728 35.6971 30.4007 35.6971 31.3286 35.8131C31.7926 36.509 32.3725 37.3209 32.8365 38.2488C33.3004 39.0607 33.7643 39.8726 34.1123 40.6845C33.7643 41.4964 33.3004 42.3083 32.8365 43.1203ZM34.9242 42.4243C35.2722 43.2362 35.5042 44.0482 35.7361 44.7441C34.9242 44.976 34.1123 45.092 33.3004 45.208C33.5324 44.7441 33.8803 44.2801 34.1123 43.8162C34.4603 43.4682 34.6922 42.8883 34.9242 42.4243ZM28.5449 49.0356C27.965 48.4557 27.3851 47.7597 26.9211 47.0638C27.5011 47.0638 28.081 47.0638 28.5449 47.0638C29.1249 47.0638 29.7048 47.0638 30.1688 47.0638C29.7048 47.7597 29.1249 48.4557 28.5449 49.0356ZM23.7895 45.324C22.9776 45.208 22.1657 45.092 21.3538 44.8601C21.5857 44.0482 21.9337 43.2362 22.1657 42.5403C22.3976 43.0043 22.6296 43.4682 22.9776 43.9322C23.3255 44.3961 23.5575 44.8601 23.7895 45.324ZM22.1657 38.9447C21.8177 38.1328 21.5857 37.3209 21.2378 36.509C22.0497 36.277 22.8616 36.161 23.7895 36.0451C23.4415 36.509 23.2095 36.973 22.8616 37.4369C22.7456 38.0168 22.5136 38.4808 22.1657 38.9447ZM28.5449 32.3335C29.1249 32.9134 29.5888 33.6093 30.1688 34.1893C29.5888 34.1893 29.1249 34.1893 28.5449 34.1893C27.965 34.1893 27.5011 34.1893 26.9211 34.1893C27.5011 33.6093 28.081 32.9134 28.5449 32.3335ZM34.1123 37.4369C33.7643 36.973 33.5324 36.509 33.1844 36.0451C34.1123 36.161 34.9242 36.277 35.7361 36.509C35.5042 37.3209 35.1562 38.1328 34.8082 38.9447C34.6922 38.4808 34.4603 38.0168 34.1123 37.4369ZM20.6578 33.1454C20.3099 30.7097 20.6578 28.9699 21.5857 28.3899C21.8177 28.2739 22.0497 28.158 22.2817 28.158C23.5575 28.158 25.4133 29.2018 27.5011 31.1736C26.6892 32.1015 25.7613 33.1454 24.9494 34.3053C23.5575 34.4212 22.1657 34.6532 20.8898 35.0012C20.7738 34.4212 20.6578 33.7253 20.6578 33.1454ZM18.1061 43.8162C15.9024 42.8883 14.3945 41.6124 14.3945 40.6845C14.3945 39.6407 15.7864 38.4808 17.9901 37.5529C18.5701 37.3209 19.15 37.0889 19.8459 36.973C20.1939 38.2488 20.6578 39.5247 21.3538 40.8005C20.7738 42.0764 20.3099 43.3522 19.9619 44.5121C19.266 44.2801 18.6861 44.0482 18.1061 43.8162ZM21.4697 52.9791C20.5419 52.5152 20.1939 50.6594 20.5419 48.2237C20.6578 47.6437 20.7738 46.9478 20.8898 46.2519C22.1657 46.4839 23.4415 46.7158 24.8334 46.8318C25.6453 47.9917 26.5732 49.0356 27.3851 49.9635C25.2973 51.9353 23.4415 52.9791 22.1657 52.9791C21.9337 53.0951 21.7017 52.9791 21.4697 52.9791ZM36.548 48.2237C36.896 50.6594 36.548 52.3992 35.6201 52.9791C35.3882 53.0951 35.1562 53.2111 34.9242 53.2111C33.6484 53.2111 31.7926 52.1672 29.7048 50.1955C30.6327 49.2676 31.4446 48.2237 32.2565 47.0638C33.6484 46.9478 35.0402 46.7158 36.2001 46.4839C36.3161 46.9478 36.432 47.5278 36.548 48.2237ZM39.0997 43.8162C38.5198 44.0482 37.9399 44.2801 37.244 44.3961C36.896 43.2362 36.432 41.9604 35.8521 40.6845C36.432 39.4087 36.896 38.1328 37.3599 36.857C37.9399 37.0889 38.6358 37.2049 39.2157 37.4369C41.4195 38.3648 42.8113 39.5247 42.8113 40.5685C42.6953 41.6124 41.3035 42.8883 39.0997 43.8162Z" fill="#61DAFB"/>
<path d="M28.6343 43.2721C30.2581 43.2721 31.534 41.9962 31.534 40.3724C31.534 38.7486 30.2581 37.4727 28.6343 37.4727C27.0105 37.4727 25.7346 38.7486 25.7346 40.3724C25.7346 41.9962 27.0105 43.2721 28.6343 43.2721Z" fill="#61DAFB"/>
</svg>
