<svg width="28" height="28" viewBox="0 0 28 28" fill="none" xmlns="http://www.w3.org/2000/svg">
<path fill-rule="evenodd" clip-rule="evenodd" d="M17.1056 17.1056C19.9197 14.2914 19.9197 9.72879 17.1056 6.91465C14.2914 4.1005 9.72879 4.1005 6.91465 6.91465C4.1005 9.72879 4.1005 14.2914 6.91465 17.1056C9.72879 19.9197 14.2914 19.9197 17.1056 17.1056ZM18.6342 22.0311C13.971 25.1206 7.62624 24.6111 3.51768 20.5025C-1.17256 15.8123 -1.17256 8.20791 3.51768 3.51768C8.20791 -1.17256 15.8123 -1.17256 20.5025 3.51768C24.6111 7.62624 25.1206 13.971 22.0311 18.6342L27.2965 23.8995C28.2345 24.8375 28.2345 26.3584 27.2965 27.2965C26.3584 28.2345 24.8375 28.2345 23.8995 27.2965L18.6342 22.0311Z" fill="#e47c03"/>
</svg>
