<svg width="416" height="285" viewBox="0 0 416 285" fill="none" xmlns="http://www.w3.org/2000/svg">
<path d="M389.336 1H26.4052C12.3743 1 1 12.3743 1 26.4052V258.681C1 272.712 12.3743 284.086 26.4052 284.086H389.336C403.367 284.086 414.741 272.712 414.741 258.681V26.4052C414.741 12.3743 403.367 1 389.336 1Z" fill="white" stroke="#F3F3F3"/>
<path fill-rule="evenodd" clip-rule="evenodd" d="M151.608 221.594V232.313V243.034H146.91V240.431C145.42 242.361 143.159 243.573 140.085 243.573C134.026 243.573 129.276 238.865 129.276 232.313C129.276 225.768 134.026 221.055 140.085 221.055C143.159 221.055 145.42 222.266 146.91 224.197V221.594H151.608ZM140.67 225.45C136.603 225.45 134.114 228.545 134.114 232.313C134.114 236.082 136.603 239.178 140.67 239.178C144.556 239.178 147.179 236.216 147.179 232.313C147.179 228.412 144.556 225.45 140.67 225.45ZM310.383 232.313C310.383 228.545 312.872 225.45 316.939 225.45C320.83 225.45 323.448 228.412 323.448 232.313C323.448 236.216 320.83 239.178 316.939 239.178C312.872 239.178 310.383 236.082 310.383 232.313ZM327.883 212.984V232.313V243.034H323.18V240.431C321.689 242.361 319.428 243.573 316.354 243.573C310.295 243.573 305.545 238.865 305.545 232.313C305.545 225.768 310.295 221.055 316.354 221.055C319.428 221.055 321.689 222.266 323.18 224.197V212.984H327.883ZM209.931 225.229C212.958 225.229 214.903 227.113 215.4 230.43H204.187C204.689 227.334 206.582 225.229 209.931 225.229ZM199.261 232.313C199.261 225.629 203.69 221.055 210.024 221.055C216.078 221.055 220.238 225.629 220.284 232.313C220.284 232.94 220.238 233.526 220.191 234.106H204.146C204.824 237.966 207.581 239.358 210.608 239.358C212.776 239.358 215.084 238.546 216.895 237.114L219.198 240.569C216.574 242.766 213.594 243.573 210.339 243.573C203.871 243.573 199.261 239.132 199.261 232.313ZM266.757 232.313C266.757 228.545 269.246 225.45 273.313 225.45C277.199 225.45 279.823 228.412 279.823 232.313C279.823 236.216 277.199 239.178 273.313 239.178C269.246 239.178 266.757 236.082 266.757 232.313ZM284.252 221.594V232.313V243.034H279.553V240.431C278.058 242.361 275.802 243.573 272.728 243.573C266.668 243.573 261.918 238.865 261.918 232.313C261.918 225.768 266.668 221.055 272.728 221.055C275.802 221.055 278.058 222.266 279.553 224.197V221.594H284.252ZM240.222 232.313C240.222 238.819 244.786 243.573 251.751 243.573C255.005 243.573 257.173 242.854 259.523 241.016L257.266 237.248C255.502 238.506 253.649 239.178 251.611 239.178C247.859 239.132 245.102 236.441 245.102 232.313C245.102 228.186 247.859 225.495 251.611 225.45C253.649 225.45 255.502 226.122 257.266 227.38L259.523 223.611C257.173 221.773 255.005 221.055 251.751 221.055C244.786 221.055 240.222 225.809 240.222 232.313ZM295.103 224.197C296.324 222.312 298.088 221.055 300.8 221.055C301.752 221.055 303.107 221.235 304.148 221.64L302.699 226.035C301.705 225.629 300.711 225.495 299.76 225.495C296.686 225.495 295.149 227.467 295.149 231.015V243.034H290.445V221.594H295.103V224.197ZM174.848 223.298C172.586 221.82 169.471 221.055 166.035 221.055C160.56 221.055 157.036 223.657 157.036 227.919C157.036 231.415 159.66 233.571 164.493 234.244L166.713 234.557C169.29 234.917 170.506 235.589 170.506 236.801C170.506 238.459 168.788 239.404 165.58 239.404C162.325 239.404 159.976 238.372 158.392 237.16L156.178 240.79C158.755 242.674 162.009 243.573 165.533 243.573C171.774 243.573 175.391 240.656 175.391 236.575C175.391 232.806 172.544 230.835 167.841 230.163L165.626 229.844C163.593 229.577 161.963 229.177 161.963 227.739C161.963 226.168 163.499 225.229 166.076 225.229C168.835 225.229 171.504 226.26 172.814 227.067L174.848 223.298ZM229.78 224.197C230.996 222.312 232.761 221.055 235.472 221.055C236.424 221.055 237.78 221.235 238.819 221.64L237.37 226.035C236.377 225.629 235.384 225.495 234.431 225.495C231.358 225.495 229.821 227.467 229.821 231.015V243.034H225.123V221.594H229.78V224.197ZM195.374 221.594H187.69V215.089H182.94V221.594H178.557V225.855H182.94V235.636C182.94 240.611 184.886 243.573 190.443 243.573C192.482 243.573 194.831 242.947 196.321 241.914L194.966 237.92C193.563 238.726 192.027 239.132 190.806 239.132C188.456 239.132 187.69 237.694 187.69 235.543V225.855H195.374V221.594ZM125.12 229.577V243.034H120.37V231.102C120.37 227.467 118.834 225.45 115.625 225.45C112.505 225.45 110.337 227.426 110.337 231.148V243.034H105.587V231.102C105.587 227.467 104.009 225.45 100.888 225.45C97.6747 225.45 95.5951 227.426 95.5951 231.148V243.034H90.8501V221.594H95.5537V224.237C97.3183 221.727 99.5742 221.055 101.882 221.055C105.183 221.055 107.533 222.492 109.023 224.869C111.015 221.861 113.861 221.008 116.619 221.055C121.865 221.101 125.12 224.51 125.12 229.577Z" fill="#231F20"/>
<path d="M244.501 185.162H173.29V58.1856H244.501V185.162Z" fill="#FF5F00"/>
<path d="M177.807 121.677C177.807 95.9188 189.962 72.9743 208.89 58.1882C195.049 47.3758 177.58 40.9222 158.595 40.9222C113.649 40.9222 77.2153 77.0768 77.2153 121.677C77.2153 166.277 113.649 202.431 158.595 202.431C177.58 202.431 195.049 195.977 208.89 185.165C189.962 170.379 177.807 147.435 177.807 121.677Z" fill="#EB001B"/>
<path d="M340.571 121.677C340.571 166.277 304.138 202.431 259.192 202.431C240.206 202.431 222.738 195.977 208.891 185.165C227.824 170.379 239.979 147.435 239.979 121.677C239.979 95.9188 227.824 72.9743 208.891 58.1882C222.738 47.3758 240.206 40.9222 259.192 40.9222C304.138 40.9222 340.571 77.0768 340.571 121.677Z" fill="#F79E1B"/>
</svg>
