<svg width="22" height="22" viewBox="0 0 22 22" fill="none" xmlns="http://www.w3.org/2000/svg">
<path fill-rule="evenodd" clip-rule="evenodd" d="M10.75 1.5C5.64137 1.5 1.5 5.64137 1.5 10.75C1.5 15.8586 5.64137 20 10.75 20C15.8586 20 20 15.8586 20 10.75C20 5.64137 15.8586 1.5 10.75 1.5ZM0 10.75C0 4.81294 4.81294 0 10.75 0C16.6871 0 21.5 4.81294 21.5 10.75C21.5 16.6871 16.6871 21.5 10.75 21.5C4.81294 21.5 0 16.6871 0 10.75Z" fill="white"/>
<path fill-rule="evenodd" clip-rule="evenodd" d="M15.7499 10.75C15.7499 11.1642 15.4141 11.5 14.9999 11.5H6.51465C6.10044 11.5 5.76465 11.1642 5.76465 10.75C5.76466 10.3357 6.10044 10 6.51466 10H14.9999C15.4141 10 15.7499 10.3358 15.7499 10.75Z" fill="white"/>
</svg>
