<svg width="32" height="32" viewBox="0 0 32 32" fill="none" xmlns="http://www.w3.org/2000/svg">
<path d="M16 0C7.164 0 0 7.163 0 16C0 24.837 7.163 32 16 32C24.837 32 32 24.837 32 16C32 7.163 24.837 0 16 0ZM16 30.032C8.28 30.032 2 23.72 2 16C2 8.28 8.28 2 16 2C23.72 2 30 8.28 30 16C30 23.72 23.72 30.032 16 30.032ZM23 15H17V9C17 8.448 16.552 8 16 8C15.448 8 15 8.448 15 9V15H9C8.448 15 8 15.448 8 16C8 16.552 8.448 17 9 17H15V23C15 23.552 15.448 24 16 24C16.552 24 17 23.552 17 23V17H23C23.552 17 24 16.552 24 16C24 15.448 23.552 15 23 15Z" fill="white"/>
</svg>
