<svg width="960" height="961" viewBox="0 0 960 961" fill="none" xmlns="http://www.w3.org/2000/svg">
<path d="M873.92 206.332C868.897 199.852 861.578 195.547 853.473 194.306C845.369 193.065 837.097 194.982 830.365 199.662C823.632 204.342 818.953 211.427 817.292 219.456C815.632 227.485 817.117 235.846 821.44 242.812C858.737 296.398 882.897 358.011 891.966 422.665C901.036 487.32 894.761 553.202 873.648 614.982C852.536 676.762 817.178 732.705 770.436 778.287C723.694 823.868 666.88 857.808 604.589 877.361C542.297 896.915 476.279 901.532 411.872 890.84C347.466 880.148 286.48 854.446 233.849 815.815C181.217 777.183 138.416 726.706 108.91 668.467C79.403 610.227 64.0183 545.86 64.0002 480.572C64.4034 391.059 93.4929 304.033 146.998 232.27C200.504 160.508 275.606 107.788 361.28 81.8521C365.314 80.6544 369.073 78.6739 372.342 76.0236C375.611 73.3733 378.326 70.1051 380.331 66.4056C382.337 62.7061 383.594 58.6478 384.032 54.4623C384.469 50.2769 384.078 46.0463 382.88 42.0121C381.683 37.9779 379.702 34.2191 377.052 30.9503C374.401 27.6815 371.133 24.9667 367.434 22.961C363.734 20.9552 359.676 19.6978 355.49 19.2604C351.305 18.8231 347.074 19.2144 343.04 20.4121C257.718 45.8135 181.14 94.4425 121.866 160.864C62.5926 227.286 22.9585 308.882 7.39365 396.535C-8.17119 484.187 0.94656 574.441 33.7279 657.209C66.5092 739.977 121.662 811.998 193.023 865.223C264.384 918.447 349.14 950.778 437.819 958.601C526.498 966.424 615.606 949.431 695.183 909.522C774.759 869.613 841.67 808.361 888.435 732.61C935.201 656.859 959.979 569.596 960 480.572C960.179 382.484 930.121 286.724 873.92 206.332Z" fill="#E47C03"/>
<path d="M598.72 81.852C648.607 96.9891 695.185 121.418 736 153.852C739.299 156.457 743.079 158.388 747.123 159.532C751.168 160.677 755.399 161.014 759.574 160.523C763.749 160.033 767.786 158.725 771.456 156.675C775.125 154.624 778.355 151.871 780.96 148.572C783.566 145.273 785.496 141.493 786.64 137.449C787.785 133.404 788.122 129.173 787.632 124.998C787.141 120.824 785.834 116.786 783.783 113.117C781.732 109.447 778.979 106.217 775.68 103.612C728.125 65.9532 673.82 37.7149 615.68 20.412C607.533 17.9932 598.758 18.91 591.287 22.9608C583.815 27.0116 578.259 33.8645 575.84 42.012C573.421 50.1594 574.338 58.934 578.389 66.4055C582.44 73.8769 589.293 79.4332 597.44 81.852H598.72ZM457.28 55.292C460.391 58.1186 463.962 60.3914 467.84 62.012C471.671 63.7049 475.812 64.5794 480 64.5794C484.188 64.5794 488.33 63.7049 492.16 62.012C496.035 60.3859 499.606 58.1136 502.72 55.292C505.686 52.3019 508.032 48.7558 509.625 44.857C511.217 40.9582 512.024 36.7834 512 32.572C511.882 24.0994 508.568 15.9842 502.72 9.85196C499.025 5.99905 494.426 3.13162 489.34 1.51078C484.254 -0.110055 478.843 -0.43279 473.6 0.571964C471.597 0.926784 469.656 1.57367 467.84 2.49196C465.798 3.18519 463.86 4.15415 462.08 5.37196L457.28 9.21196C454.367 12.2553 452.083 15.8439 450.56 19.772C448.836 23.8174 447.965 28.1747 448 32.572C448.051 36.7536 448.92 40.8849 450.56 44.732C452.186 48.607 454.459 52.1777 457.28 55.292ZM198.08 436.412C194.655 439.804 191.936 443.841 190.081 448.29C188.225 452.739 187.27 457.512 187.27 462.332C187.27 467.152 188.225 471.925 190.081 476.374C191.936 480.823 194.655 484.86 198.08 488.252L381.12 672.572C384.512 675.997 388.549 678.716 392.998 680.571C397.447 682.427 402.22 683.382 407.04 683.382C411.861 683.382 416.633 682.427 421.082 680.571C425.531 678.716 429.568 675.997 432.96 672.572L761.92 342.012C769.007 335.138 773.072 325.73 773.222 315.858C773.372 305.986 769.595 296.459 762.72 289.372C755.846 282.285 746.438 278.22 736.566 278.07C726.694 277.92 717.167 281.698 710.08 288.572L406.72 591.932L249.92 436.412C243.027 429.573 233.71 425.735 224 425.735C214.29 425.735 204.973 429.573 198.08 436.412Z" fill="#E47C03"/>
</svg>
